<svg xmlns="http://www.w3.org/2000/svg" viewBox="0 0 1200 630" role="img" aria-labelledby="title desc">
  <title id="title">Cẩm nang Hàn Quốc - Sol Dream Education</title>
  <desc id="desc">Minh họa cẩm nang, bản đồ Hàn Quốc và hành trình học tập</desc>
  <defs>
    <linearGradient id="bg" x1="0" y1="0" x2="1" y2="1">
      <stop offset="0" stop-color="#311b46"/>
      <stop offset="0.55" stop-color="#7d225f"/>
      <stop offset="1" stop-color="#c0216d"/>
    </linearGradient>
    <linearGradient id="paper" x1="0" y1="0" x2="0" y2="1">
      <stop offset="0" stop-color="#fff" stop-opacity=".98"/>
      <stop offset="1" stop-color="#fff1f7" stop-opacity=".92"/>
    </linearGradient>
    <filter id="shadow" x="-30%" y="-30%" width="160%" height="160%">
      <feDropShadow dx="0" dy="18" stdDeviation="18" flood-color="#16091e" flood-opacity=".28"/>
    </filter>
  </defs>
  <rect width="1200" height="630" rx="38" fill="url(#bg)"/>
  <circle cx="1015" cy="105" r="150" fill="#ffca5d" opacity=".2"/>
  <circle cx="170" cy="570" r="220" fill="#f33b8e" opacity=".16"/>
  <path d="M0 472c176-91 330 75 501-12 178-91 307 24 699-91v261H0Z" fill="#fff" opacity=".06"/>

  <g transform="translate(690 65)" filter="url(#shadow)">
    <rect x="0" y="0" width="380" height="500" rx="38" fill="url(#paper)"/>
    <path d="M192 65c21 5 39-8 58 3l21 25 24 13 5 28 22 24-4 31 17 28-10 31 10 31-21 25-8 34-28 25-21 26-36 8-21 20-29-12-24 10-18-21-28-7-8-25-19-14 13-25-10-22 18-21-8-23 20-20-5-27 18-20-5-28 23-15 7-28 24-15 4-25Z" fill="#f8dbe8" stroke="#aa286c" stroke-width="7" stroke-linejoin="round"/>
    <ellipse cx="207" cy="452" rx="45" ry="15" fill="#f8dbe8" stroke="#aa286c" stroke-width="6" transform="rotate(-8 207 452)"/>
    <circle cx="159" cy="149" r="28" fill="#ed3b83" opacity=".2"/>
    <path d="M159 129c-14 0-25 11-25 25 0 20 25 43 25 43s25-23 25-43c0-14-11-25-25-25Zm0 31a9 9 0 1 1 0-18 9 9 0 0 1 0 18Z" fill="#bd1e67"/>
    <path d="M185 149h76" stroke="#bd1e67" stroke-width="4" stroke-linecap="round"/>
    <text x="270" y="156" fill="#4b183f" font-family="Arial,sans-serif" font-size="25" font-weight="800">SEOUL</text>
  </g>

  <g transform="translate(95 115)" fill="#fff">
    <rect width="78" height="78" rx="22" fill="#fff" opacity=".16"/>
    <path d="M18 21h31a11 11 0 0 1 11 11v31H29A11 11 0 0 1 18 52Zm42 11 10-8v31l-10 8Z" fill="none" stroke="#ffca5d" stroke-width="5" stroke-linejoin="round"/>
    <text x="0" y="104" font-family="Segoe UI Light,Arial,sans-serif" font-size="40" font-weight="300" fill="#ffca5d">Sol Dream</text>
    <path d="M0 129h42m185 0h42" stroke="#ffca5d" stroke-width="2"/>
    <text x="55" y="134" font-family="Arial,sans-serif" font-size="14" font-weight="600" letter-spacing="7" fill="#ffca5d">EDUCATION</text>
    <text x="0" y="205" font-family="Arial,sans-serif" font-size="54" font-weight="900">CẨM NANG</text>
    <text x="0" y="270" font-family="Arial,sans-serif" font-size="54" font-weight="900">HÀN QUỐC</text>
    <text x="0" y="323" font-family="Arial,sans-serif" font-size="22" font-weight="600" opacity=".82">Thông tin chính thức · Dễ tra cứu · Có dẫn nguồn</text>
  </g>

  <path d="M477 432c75-48 129-73 201-91" fill="none" stroke="#ffca5d" stroke-width="5" stroke-dasharray="15 15" opacity=".85"/>
  <path d="m674 322-39-13 17 23-20 18 43-8 23 23 4-11-16-24 17-32-10-5-19 29Z" fill="#ffca5d"/>
</svg>
